<svg xmlns="http://www.w3.org/2000/svg" viewBox="0 0 128 128">
  <!-- Background circle -->
  <circle cx="64" cy="64" r="60" fill="#4f46e5" stroke="#4338ca" stroke-width="3"/>

  <!-- Selection cursor (magnifier / capture symbol) -->
  <g transform="translate(32, 28)" fill="none" stroke="#fff" stroke-width="6" stroke-linecap="round" stroke-linejoin="round">
    <path d="M8 3L3 8L8 13L3 18L8 23L3 28L8 33L3 38L5 40"/>
    <circle cx="39" cy="40" r="14"/>
    <line x1="49" y1="50" x2="58" y2="59"/>
  </g>

  <!-- Sparkle / AI dots -->
  <circle cx="78" cy="78" r="4" fill="#fbbf24"/>
  <circle cx="92" cy="70" r="3" fill="#fbbf24"/>
  <circle cx="88" cy="88" r="3" fill="#fbbf24"/>
  <circle cx="72" cy="84" r="2.5" fill="#fbbf24"/>

  <!-- Chat bubble -->
  <g transform="translate(40, 70)">
    <rect x="0" y="0" width="40" height="28" rx="8" fill="#fff" opacity="0.95"/>
    <polygon points="10,28 18,36 26,28" fill="#fff" opacity="0.95"/>
    <!-- Typing dots -->
    <circle cx="12" cy="14" r="3" fill="#4f46e5"/>
    <circle cx="20" cy="14" r="3" fill="#4f46e5"/>
    <circle cx="28" cy="14" r="3" fill="#4f46e5"/>
  </g>
</svg>